<?xml version="1.0" encoding="UTF-8" standalone="no"?><svg xmlns="http://www.w3.org/2000/svg" xmlns:xlink="http://www.w3.org/1999/xlink" contentStyleType="text/css" height="828px" preserveAspectRatio="none" style="width:367px;height:828px;background:#FFFFFF;" version="1.1" viewBox="0 0 367 828" width="367px" zoomAndPan="magnify"><defs/><g><rect fill="#F1F1F1" height="60.2656" rx="12.5" ry="12.5" style="stroke:#181818;stroke-width:0.5;" width="344" x="11" y="11"/><text fill="#000000" font-family="sans-serif" font-size="14" font-weight="bold" lengthAdjust="spacing" textLength="122" x="21" y="33.9951">Input Validation</text><line style="stroke:#181818;stroke-width:1.0;" x1="11" x2="355" y1="42.2969" y2="42.2969"/><text fill="#000000" font-family="sans-serif" font-size="12" lengthAdjust="spacing" textLength="324" x="21" y="58.4355">Validate the input BAM and corresponding index file</text><rect fill="#F1F1F1" height="60.2656" rx="12.5" ry="12.5" style="stroke:#181818;stroke-width:0.5;" width="193" x="86.5" y="91.2656"/><text fill="#000000" font-family="sans-serif" font-size="14" font-weight="bold" lengthAdjust="spacing" textLength="55" x="96.5" y="114.2607">BAMQL</text><line style="stroke:#181818;stroke-width:1.0;" x1="86.5" x2="279.5" y1="122.5625" y2="122.5625"/><text fill="#000000" font-family="sans-serif" font-size="12" lengthAdjust="spacing" textLength="173" x="96.5" y="138.7012">Extract mitochondrial reads</text><rect fill="#F1F1F1" height="60.2656" rx="12.5" ry="12.5" style="stroke:#181818;stroke-width:0.5;" width="211" x="77.5" y="171.5313"/><text fill="#000000" font-family="sans-serif" font-size="14" font-weight="bold" lengthAdjust="spacing" textLength="76" x="87.5" y="194.5264">MToolBox</text><line style="stroke:#181818;stroke-width:1.0;" x1="77.5" x2="288.5" y1="202.8281" y2="202.8281"/><text fill="#000000" font-family="sans-serif" font-size="12" lengthAdjust="spacing" textLength="191" x="87.5" y="218.9668">Align to mitochondrial genome</text><rect fill="#F1F1F1" height="60.2656" rx="12.5" ry="12.5" style="stroke:#181818;stroke-width:0.5;" width="217" x="74.5" y="300.1992"/><text fill="#000000" font-family="sans-serif" font-size="14" font-weight="bold" lengthAdjust="spacing" textLength="197" x="84.5" y="323.1943">downsample_SAM_picard</text><line style="stroke:#181818;stroke-width:1.0;" x1="74.5" x2="291.5" y1="331.4961" y2="331.4961"/><text fill="#000000" font-family="sans-serif" font-size="12" lengthAdjust="spacing" textLength="108" x="84.5" y="347.6348">downsample BAM</text><polygon fill="#F1F1F1" points="102.5,251.7969,263.5,251.7969,275.5,263.7969,263.5,275.7969,102.5,275.7969,90.5,263.7969,102.5,251.7969" style="stroke:#181818;stroke-width:0.5;"/><text fill="#000000" font-family="sans-serif" font-size="11" lengthAdjust="spacing" textLength="20" x="187" y="286.0073">yes</text><text fill="#000000" font-family="sans-serif" font-size="11" lengthAdjust="spacing" textLength="161" x="102.5" y="267.605">downsample_mtoolbox_bam</text><text fill="#000000" font-family="sans-serif" font-size="11" lengthAdjust="spacing" textLength="14" x="275.5" y="261.2026">no</text><polygon fill="#F1F1F1" points="183,380.4648,195,392.4648,183,404.4648,171,392.4648,183,380.4648" style="stroke:#181818;stroke-width:0.5;"/><rect fill="#F1F1F1" height="60.2656" rx="12.5" ry="12.5" style="stroke:#181818;stroke-width:0.5;" width="185" x="90.5" y="424.4648"/><text fill="#000000" font-family="sans-serif" font-size="14" font-weight="bold" lengthAdjust="spacing" textLength="78" x="100.5" y="447.46">MitoCaller</text><line style="stroke:#181818;stroke-width:1.0;" x1="90.5" x2="275.5" y1="455.7617" y2="455.7617"/><text fill="#000000" font-family="sans-serif" font-size="12" lengthAdjust="spacing" textLength="165" x="100.5" y="471.9004">Call mitochondrial variants</text><rect fill="#F1F1F1" height="60.2656" rx="12.5" ry="12.5" style="stroke:#181818;stroke-width:0.5;" width="159" x="103.5" y="504.7305"/><text fill="#000000" font-family="sans-serif" font-size="14" font-weight="bold" lengthAdjust="spacing" textLength="119" x="113.5" y="527.7256">MitoCaller2VCF</text><line style="stroke:#181818;stroke-width:1.0;" x1="103.5" x2="262.5" y1="536.0273" y2="536.0273"/><text fill="#000000" font-family="sans-serif" font-size="12" lengthAdjust="spacing" textLength="139" x="113.5" y="552.166">Convert results to VCF</text><rect fill="#F1F1F1" height="60.2656" rx="12.5" ry="12.5" style="stroke:#181818;stroke-width:0.5;" width="199" x="83.5" y="633.3984"/><text fill="#000000" font-family="sans-serif" font-size="14" font-weight="bold" lengthAdjust="spacing" textLength="144" x="93.5" y="656.3936">Call_Heteroplasmy</text><line style="stroke:#181818;stroke-width:1.0;" x1="83.5" x2="282.5" y1="664.6953" y2="664.6953"/><text fill="#000000" font-family="sans-serif" font-size="12" lengthAdjust="spacing" textLength="179" x="93.5" y="680.834">Extract heteroplasmy scores</text><polygon fill="#F1F1F1" points="142,584.9961,224,584.9961,236,596.9961,224,608.9961,142,608.9961,130,596.9961,142,584.9961" style="stroke:#181818;stroke-width:0.5;"/><text fill="#000000" font-family="sans-serif" font-size="11" lengthAdjust="spacing" textLength="20" x="187" y="619.2065">yes</text><text fill="#000000" font-family="sans-serif" font-size="11" lengthAdjust="spacing" textLength="82" x="142" y="600.8042">paired sample</text><text fill="#000000" font-family="sans-serif" font-size="11" lengthAdjust="spacing" textLength="14" x="236" y="594.4019">no</text><polygon fill="#F1F1F1" points="183,713.6641,195,725.6641,183,737.6641,171,725.6641,183,713.6641" style="stroke:#181818;stroke-width:0.5;"/><rect fill="#F1F1F1" height="60.2656" rx="12.5" ry="12.5" style="stroke:#181818;stroke-width:0.5;" width="173" x="96.5" y="757.6641"/><text fill="#000000" font-family="sans-serif" font-size="14" font-weight="bold" lengthAdjust="spacing" textLength="136" x="106.5" y="780.6592">Output Validation</text><line style="stroke:#181818;stroke-width:1.0;" x1="96.5" x2="269.5" y1="788.9609" y2="788.9609"/><text fill="#000000" font-family="sans-serif" font-size="12" lengthAdjust="spacing" textLength="153" x="106.5" y="805.0996">Validate output VCF files</text><line style="stroke:#181818;stroke-width:1.0;" x1="183" x2="183" y1="71.2656" y2="91.2656"/><polygon fill="#181818" points="179,81.2656,183,91.2656,187,81.2656,183,85.2656" style="stroke:#181818;stroke-width:1.0;"/><line style="stroke:#181818;stroke-width:1.0;" x1="183" x2="183" y1="151.5313" y2="171.5313"/><polygon fill="#181818" points="179,161.5313,183,171.5313,187,161.5313,183,165.5313" style="stroke:#181818;stroke-width:1.0;"/><line style="stroke:#181818;stroke-width:1.0;" x1="183" x2="183" y1="275.7969" y2="300.1992"/><polygon fill="#181818" points="179,290.1992,183,300.1992,187,290.1992,183,294.1992" style="stroke:#181818;stroke-width:1.0;"/><line style="stroke:#181818;stroke-width:1.0;" x1="275.5" x2="301.5" y1="263.7969" y2="263.7969"/><polygon fill="#181818" points="297.5,320.332,301.5,330.332,305.5,320.332,301.5,324.332" style="stroke:#181818;stroke-width:1.0;"/><line style="stroke:#181818;stroke-width:1.0;" x1="301.5" x2="301.5" y1="263.7969" y2="392.4648"/><line style="stroke:#181818;stroke-width:1.0;" x1="301.5" x2="195" y1="392.4648" y2="392.4648"/><polygon fill="#181818" points="205,388.4648,195,392.4648,205,396.4648,201,392.4648" style="stroke:#181818;stroke-width:1.0;"/><line style="stroke:#181818;stroke-width:1.0;" x1="183" x2="183" y1="360.4648" y2="380.4648"/><polygon fill="#181818" points="179,370.4648,183,380.4648,187,370.4648,183,374.4648" style="stroke:#181818;stroke-width:1.0;"/><line style="stroke:#181818;stroke-width:1.0;" x1="183" x2="183" y1="231.7969" y2="251.7969"/><polygon fill="#181818" points="179,241.7969,183,251.7969,187,241.7969,183,245.7969" style="stroke:#181818;stroke-width:1.0;"/><line style="stroke:#181818;stroke-width:1.0;" x1="183" x2="183" y1="404.4648" y2="424.4648"/><polygon fill="#181818" points="179,414.4648,183,424.4648,187,414.4648,183,418.4648" style="stroke:#181818;stroke-width:1.0;"/><line style="stroke:#181818;stroke-width:1.0;" x1="183" x2="183" y1="484.7305" y2="504.7305"/><polygon fill="#181818" points="179,494.7305,183,504.7305,187,494.7305,183,498.7305" style="stroke:#181818;stroke-width:1.0;"/><line style="stroke:#181818;stroke-width:1.0;" x1="183" x2="183" y1="608.9961" y2="633.3984"/><polygon fill="#181818" points="179,623.3984,183,633.3984,187,623.3984,183,627.3984" style="stroke:#181818;stroke-width:1.0;"/><line style="stroke:#181818;stroke-width:1.0;" x1="236" x2="292.5" y1="596.9961" y2="596.9961"/><polygon fill="#181818" points="288.5,653.5313,292.5,663.5313,296.5,653.5313,292.5,657.5313" style="stroke:#181818;stroke-width:1.0;"/><line style="stroke:#181818;stroke-width:1.0;" x1="292.5" x2="292.5" y1="596.9961" y2="725.6641"/><line style="stroke:#181818;stroke-width:1.0;" x1="292.5" x2="195" y1="725.6641" y2="725.6641"/><polygon fill="#181818" points="205,721.6641,195,725.6641,205,729.6641,201,725.6641" style="stroke:#181818;stroke-width:1.0;"/><line style="stroke:#181818;stroke-width:1.0;" x1="183" x2="183" y1="693.6641" y2="713.6641"/><polygon fill="#181818" points="179,703.6641,183,713.6641,187,703.6641,183,707.6641" style="stroke:#181818;stroke-width:1.0;"/><line style="stroke:#181818;stroke-width:1.0;" x1="183" x2="183" y1="564.9961" y2="584.9961"/><polygon fill="#181818" points="179,574.9961,183,584.9961,187,574.9961,183,578.9961" style="stroke:#181818;stroke-width:1.0;"/><line style="stroke:#181818;stroke-width:1.0;" x1="183" x2="183" y1="737.6641" y2="757.6641"/><polygon fill="#181818" points="179,747.6641,183,757.6641,187,747.6641,183,751.6641" style="stroke:#181818;stroke-width:1.0;"/><!--MD5=[34443234790b3ba9b902e2dd80b4ae00]
@startuml
skinparam SwimlaneTitleFontStyle bold


:==Input Validation
- - - -
Validate the input BAM and corresponding index file;
:==BAMQL
- - - -
Extract mitochondrial reads;
:==MToolBox
- - - -
Align to mitochondrial genome;
if (downsample_mtoolbox_bam) then (yes)
  :==downsample_SAM_picard
  - - - -
  downsample BAM;
else (no)
endif
:==MitoCaller
- - - -
Call mitochondrial variants;
:==MitoCaller2VCF
- - - -
Convert results to VCF;
if (paired sample) then (yes)
  :==Call_Heteroplasmy
  - - - -
  Extract heteroplasmy scores;
else (no)
endif
:==Output Validation
- - - -
Validate output VCF files;

@enduml

PlantUML version 1.2022.6(Tue Jun 21 17:34:49 GMT 2022)
(GPL source distribution)
Java Runtime: OpenJDK Runtime Environment
JVM: OpenJDK 64-Bit Server VM
Default Encoding: UTF-8
Language: en
Country: US
--></g></svg>