<?xml version="1.0" encoding="UTF-8" standalone="no"?><svg xmlns="http://www.w3.org/2000/svg" xmlns:xlink="http://www.w3.org/1999/xlink" contentStyleType="text/css" height="656px" preserveAspectRatio="none" style="width:367px;height:656px;background:#FFFFFF;" version="1.1" viewBox="0 0 367 656" width="367px" zoomAndPan="magnify"><defs/><g><rect fill="#F1F1F1" height="60.2656" rx="12.5" ry="12.5" style="stroke:#181818;stroke-width:0.5;" width="344" x="11" y="11"/><text fill="#000000" font-family="sans-serif" font-size="14" font-weight="bold" lengthAdjust="spacing" textLength="122" x="21" y="33.9951">Input Validation</text><line style="stroke:#181818;stroke-width:1.0;" x1="11" x2="355" y1="42.2969" y2="42.2969"/><text fill="#000000" font-family="sans-serif" font-size="12" lengthAdjust="spacing" textLength="324" x="21" y="58.4355">Validate the input BAM and corresponding index file</text><rect fill="#F1F1F1" height="60.2656" rx="12.5" ry="12.5" style="stroke:#181818;stroke-width:0.5;" width="193" x="86.5" y="91.2656"/><text fill="#000000" font-family="sans-serif" font-size="14" font-weight="bold" lengthAdjust="spacing" textLength="55" x="96.5" y="114.2607">BAMQL</text><line style="stroke:#181818;stroke-width:1.0;" x1="86.5" x2="279.5" y1="122.5625" y2="122.5625"/><text fill="#000000" font-family="sans-serif" font-size="12" lengthAdjust="spacing" textLength="173" x="96.5" y="138.7012">Extract mitochondrial reads</text><rect fill="#F1F1F1" height="60.2656" rx="12.5" ry="12.5" style="stroke:#181818;stroke-width:0.5;" width="211" x="77.5" y="171.5313"/><text fill="#000000" font-family="sans-serif" font-size="14" font-weight="bold" lengthAdjust="spacing" textLength="76" x="87.5" y="194.5264">MToolBox</text><line style="stroke:#181818;stroke-width:1.0;" x1="77.5" x2="288.5" y1="202.8281" y2="202.8281"/><text fill="#000000" font-family="sans-serif" font-size="12" lengthAdjust="spacing" textLength="191" x="87.5" y="218.9668">Align to mitochondrial genome</text><rect fill="#F1F1F1" height="60.2656" rx="12.5" ry="12.5" style="stroke:#181818;stroke-width:0.5;" width="185" x="90.5" y="251.7969"/><text fill="#000000" font-family="sans-serif" font-size="14" font-weight="bold" lengthAdjust="spacing" textLength="78" x="100.5" y="274.792">MitoCaller</text><line style="stroke:#181818;stroke-width:1.0;" x1="90.5" x2="275.5" y1="283.0938" y2="283.0938"/><text fill="#000000" font-family="sans-serif" font-size="12" lengthAdjust="spacing" textLength="165" x="100.5" y="299.2324">Call mitochondrial variants</text><rect fill="#F1F1F1" height="60.2656" rx="12.5" ry="12.5" style="stroke:#181818;stroke-width:0.5;" width="159" x="103.5" y="332.0625"/><text fill="#000000" font-family="sans-serif" font-size="14" font-weight="bold" lengthAdjust="spacing" textLength="119" x="113.5" y="355.0576">MitoCaller2VCF</text><line style="stroke:#181818;stroke-width:1.0;" x1="103.5" x2="262.5" y1="363.3594" y2="363.3594"/><text fill="#000000" font-family="sans-serif" font-size="12" lengthAdjust="spacing" textLength="139" x="113.5" y="379.498">Convert results to VCF</text><rect fill="#F1F1F1" height="60.2656" rx="12.5" ry="12.5" style="stroke:#181818;stroke-width:0.5;" width="199" x="83.5" y="460.7305"/><text fill="#000000" font-family="sans-serif" font-size="14" font-weight="bold" lengthAdjust="spacing" textLength="144" x="93.5" y="483.7256">Call_Heteroplasmy</text><line style="stroke:#181818;stroke-width:1.0;" x1="83.5" x2="282.5" y1="492.0273" y2="492.0273"/><text fill="#000000" font-family="sans-serif" font-size="12" lengthAdjust="spacing" textLength="179" x="93.5" y="508.166">Extract heteroplasmy scores</text><polygon fill="#F1F1F1" points="142,412.3281,224,412.3281,236,424.3281,224,436.3281,142,436.3281,130,424.3281,142,412.3281" style="stroke:#181818;stroke-width:0.5;"/><text fill="#000000" font-family="sans-serif" font-size="11" lengthAdjust="spacing" textLength="20" x="187" y="446.5386">yes</text><text fill="#000000" font-family="sans-serif" font-size="11" lengthAdjust="spacing" textLength="82" x="142" y="428.1362">paired sample</text><text fill="#000000" font-family="sans-serif" font-size="11" lengthAdjust="spacing" textLength="14" x="236" y="421.7339">no</text><polygon fill="#F1F1F1" points="183,540.9961,195,552.9961,183,564.9961,171,552.9961,183,540.9961" style="stroke:#181818;stroke-width:0.5;"/><rect fill="#F1F1F1" height="60.2656" rx="12.5" ry="12.5" style="stroke:#181818;stroke-width:0.5;" width="173" x="96.5" y="584.9961"/><text fill="#000000" font-family="sans-serif" font-size="14" font-weight="bold" lengthAdjust="spacing" textLength="136" x="106.5" y="607.9912">Output Validation</text><line style="stroke:#181818;stroke-width:1.0;" x1="96.5" x2="269.5" y1="616.293" y2="616.293"/><text fill="#000000" font-family="sans-serif" font-size="12" lengthAdjust="spacing" textLength="153" x="106.5" y="632.4316">Validate output VCF files</text><line style="stroke:#181818;stroke-width:1.0;" x1="183" x2="183" y1="71.2656" y2="91.2656"/><polygon fill="#181818" points="179,81.2656,183,91.2656,187,81.2656,183,85.2656" style="stroke:#181818;stroke-width:1.0;"/><line style="stroke:#181818;stroke-width:1.0;" x1="183" x2="183" y1="151.5313" y2="171.5313"/><polygon fill="#181818" points="179,161.5313,183,171.5313,187,161.5313,183,165.5313" style="stroke:#181818;stroke-width:1.0;"/><line style="stroke:#181818;stroke-width:1.0;" x1="183" x2="183" y1="231.7969" y2="251.7969"/><polygon fill="#181818" points="179,241.7969,183,251.7969,187,241.7969,183,245.7969" style="stroke:#181818;stroke-width:1.0;"/><line style="stroke:#181818;stroke-width:1.0;" x1="183" x2="183" y1="312.0625" y2="332.0625"/><polygon fill="#181818" points="179,322.0625,183,332.0625,187,322.0625,183,326.0625" style="stroke:#181818;stroke-width:1.0;"/><line style="stroke:#181818;stroke-width:1.0;" x1="183" x2="183" y1="436.3281" y2="460.7305"/><polygon fill="#181818" points="179,450.7305,183,460.7305,187,450.7305,183,454.7305" style="stroke:#181818;stroke-width:1.0;"/><line style="stroke:#181818;stroke-width:1.0;" x1="236" x2="292.5" y1="424.3281" y2="424.3281"/><polygon fill="#181818" points="288.5,480.8633,292.5,490.8633,296.5,480.8633,292.5,484.8633" style="stroke:#181818;stroke-width:1.0;"/><line style="stroke:#181818;stroke-width:1.0;" x1="292.5" x2="292.5" y1="424.3281" y2="552.9961"/><line style="stroke:#181818;stroke-width:1.0;" x1="292.5" x2="195" y1="552.9961" y2="552.9961"/><polygon fill="#181818" points="205,548.9961,195,552.9961,205,556.9961,201,552.9961" style="stroke:#181818;stroke-width:1.0;"/><line style="stroke:#181818;stroke-width:1.0;" x1="183" x2="183" y1="520.9961" y2="540.9961"/><polygon fill="#181818" points="179,530.9961,183,540.9961,187,530.9961,183,534.9961" style="stroke:#181818;stroke-width:1.0;"/><line style="stroke:#181818;stroke-width:1.0;" x1="183" x2="183" y1="392.3281" y2="412.3281"/><polygon fill="#181818" points="179,402.3281,183,412.3281,187,402.3281,183,406.3281" style="stroke:#181818;stroke-width:1.0;"/><line style="stroke:#181818;stroke-width:1.0;" x1="183" x2="183" y1="564.9961" y2="584.9961"/><polygon fill="#181818" points="179,574.9961,183,584.9961,187,574.9961,183,578.9961" style="stroke:#181818;stroke-width:1.0;"/><!--MD5=[ec723640dbbf555c2553caa4465b5cc9]
@startuml
skinparam SwimlaneTitleFontStyle bold


:==Input Validation
- - - -
Validate the input BAM and corresponding index file;
:==BAMQL
- - - -
Extract mitochondrial reads;
:==MToolBox
- - - -
Align to mitochondrial genome;
:==MitoCaller
- - - -
Call mitochondrial variants;
:==MitoCaller2VCF
- - - -
Convert results to VCF;
if (paired sample) then (yes)
  :==Call_Heteroplasmy
  - - - -
  Extract heteroplasmy scores;
else (no)
endif
:==Output Validation
- - - -
Validate output VCF files;

@enduml

PlantUML version 1.2022.6(Tue Jun 21 17:34:49 GMT 2022)
(GPL source distribution)
Java Runtime: OpenJDK Runtime Environment
JVM: OpenJDK 64-Bit Server VM
Default Encoding: UTF-8
Language: en
Country: US
--></g></svg>